<svg xmlns="http://www.w3.org/2000/svg" width="525" viewBox="0 0 525 112.5" height="112.5" version="1.0"><g fill="#FBFBFB"><g><g><path d="M 3.96875 0 L 3.96875 -89.796875 L 21.84375 -89.796875 L 21.84375 -57.703125 L 30.3125 -57.703125 L 30.3125 -89.796875 L 48.1875 -89.796875 L 48.1875 0 L 30.3125 0 L 30.3125 -40.765625 L 21.84375 -40.765625 L 21.84375 0 Z M 3.96875 0" transform="translate(5.871 100.678)"/></g></g></g><g fill="#FBFBFB"><g><g><path d="M 3.140625 0 L 3.140625 -89.796875 L 20.484375 -89.796875 L 20.484375 0 Z M 3.140625 0" transform="translate(58.035 100.678)"/></g></g></g><g fill="#FBFBFB"><g><g><path d="M 3.96875 0 L 3.96875 -89.796875 L 21.75 -89.796875 L 21.75 -53.828125 L 30.109375 -89.796875 L 48.1875 -89.796875 L 38.15625 -48.71875 L 50.28125 0 L 31.671875 0 L 21.84375 -43.484375 L 21.84375 0 Z M 3.96875 0" transform="translate(81.764 100.678)"/></g></g></g><g fill="#FBFBFB"><g><g><path d="M 3.140625 0 L 3.140625 -89.796875 L 20.484375 -89.796875 L 20.484375 0 Z M 3.140625 0" transform="translate(131.105 100.678)"/></g></g></g><g fill="#FBFBFB"><g><g><path d="M 3.96875 0 L 3.96875 -89.796875 L 22.46875 -89.796875 L 30.734375 -46.828125 L 30.734375 -89.796875 L 48.078125 -89.796875 L 48.078125 0 L 30.515625 0 L 21.53125 -44.953125 L 21.53125 0 Z M 3.96875 0" transform="translate(154.834 100.678)"/></g></g></g><g fill="#FBFBFB"><g><g><path d="M 22.46875 0.84375 C 15.988281 0.84375 11.160156 -1.4375 7.984375 -6 C 4.816406 -10.570312 3.234375 -17.492188 3.234375 -26.765625 L 3.234375 -65.4375 C 3.234375 -73.726562 5.082031 -80 8.78125 -84.25 C 12.476562 -88.5 17.984375 -90.625 25.296875 -90.625 C 31.222656 -90.625 35.820312 -89.4375 39.09375 -87.0625 C 42.363281 -84.695312 44.625 -81.25 45.875 -76.71875 C 47.132812 -72.195312 47.765625 -66.378906 47.765625 -59.265625 L 30.203125 -59.265625 L 30.203125 -67.3125 C 30.203125 -69.476562 29.90625 -71.148438 29.3125 -72.328125 C 28.726562 -73.515625 27.671875 -74.109375 26.140625 -74.109375 C 22.722656 -74.109375 21.015625 -71.878906 21.015625 -67.421875 L 21.015625 -23.9375 C 21.015625 -21.21875 21.359375 -19.160156 22.046875 -17.765625 C 22.742188 -16.378906 23.96875 -15.6875 25.71875 -15.6875 C 27.457031 -15.6875 28.675781 -16.378906 29.375 -17.765625 C 30.070312 -19.160156 30.421875 -21.21875 30.421875 -23.9375 L 30.421875 -36.796875 L 25.609375 -36.796875 L 25.609375 -52.265625 L 47.5625 -52.265625 L 47.5625 0 L 40.34375 0 L 37.3125 -7.53125 C 34.113281 -1.945312 29.164062 0.84375 22.46875 0.84375 Z M 22.46875 0.84375" transform="translate(206.893 100.678)"/></g></g></g><g fill="#FBFBFB"><g><g><path d="M 66.171875 -72.125 L 77.5625 -72.125 C 80.28125 -72.125 81.707031 -70.695312 81.84375 -67.84375 L 84.78125 0 L 74.328125 0 L 71.8125 -63.453125 L 69.71875 -63.453125 L 55.09375 -12.125 C 54.457031 -9.757812 52.957031 -8.578125 50.59375 -8.578125 L 41.5 -8.578125 C 39.0625 -8.578125 37.53125 -9.757812 36.90625 -12.125 L 22.15625 -63.453125 L 20.171875 -63.453125 L 17.765625 0 L 7.421875 0 L 10.140625 -67.84375 C 10.273438 -70.695312 11.703125 -72.125 14.421875 -72.125 L 26.03125 -72.125 C 28.1875 -72.125 29.648438 -70.941406 30.421875 -68.578125 L 42.65625 -26.34375 C 43.34375 -23.832031 44.140625 -20.59375 45.046875 -16.625 L 46.9375 -16.625 C 47.769531 -20.3125 48.601562 -23.585938 49.4375 -26.453125 L 61.5625 -68.578125 C 62.332031 -70.941406 63.867188 -72.125 66.171875 -72.125 Z M 66.171875 -72.125" transform="translate(252.922 100.678)"/></g></g></g><g fill="#FBFBFB"><g><g><path d="M 10.96875 -46.203125 C 14.664062 -50.316406 20.9375 -52.375 29.78125 -52.375 C 38.632812 -52.375 44.90625 -50.316406 48.59375 -46.203125 C 52.289062 -42.085938 54.140625 -35.148438 54.140625 -25.390625 C 54.140625 -15.640625 52.289062 -8.742188 48.59375 -4.703125 C 44.90625 -0.660156 38.632812 1.359375 29.78125 1.359375 C 20.9375 1.359375 14.664062 -0.660156 10.96875 -4.703125 C 7.28125 -8.742188 5.4375 -15.640625 5.4375 -25.390625 C 5.4375 -35.148438 7.28125 -42.085938 10.96875 -46.203125 Z M 40.65625 -39.921875 C 38.707031 -42.503906 35.082031 -43.796875 29.78125 -43.796875 C 24.488281 -43.796875 20.867188 -42.503906 18.921875 -39.921875 C 16.972656 -37.347656 16 -32.507812 16 -25.40625 C 16 -18.363281 16.972656 -13.550781 18.921875 -10.96875 C 20.867188 -8.394531 24.488281 -7.109375 29.78125 -7.109375 C 35.082031 -7.109375 38.707031 -8.394531 40.65625 -10.96875 C 42.613281 -13.550781 43.59375 -18.363281 43.59375 -25.40625 C 43.59375 -32.507812 42.613281 -37.347656 40.65625 -39.921875 Z M 40.65625 -39.921875" transform="translate(345.017 100.678)"/></g></g></g><g fill="#FBFBFB"><g><g><path d="M 10.96875 -46.203125 C 14.664062 -50.316406 20.9375 -52.375 29.78125 -52.375 C 38.632812 -52.375 44.90625 -50.316406 48.59375 -46.203125 C 52.289062 -42.085938 54.140625 -35.148438 54.140625 -25.390625 C 54.140625 -15.640625 52.289062 -8.742188 48.59375 -4.703125 C 44.90625 -0.660156 38.632812 1.359375 29.78125 1.359375 C 20.9375 1.359375 14.664062 -0.660156 10.96875 -4.703125 C 7.28125 -8.742188 5.4375 -15.640625 5.4375 -25.390625 C 5.4375 -35.148438 7.28125 -42.085938 10.96875 -46.203125 Z M 40.65625 -39.921875 C 38.707031 -42.503906 35.082031 -43.796875 29.78125 -43.796875 C 24.488281 -43.796875 20.867188 -42.503906 18.921875 -39.921875 C 16.972656 -37.347656 16 -32.507812 16 -25.40625 C 16 -18.363281 16.972656 -13.550781 18.921875 -10.96875 C 20.867188 -8.394531 24.488281 -7.109375 29.78125 -7.109375 C 35.082031 -7.109375 38.707031 -8.394531 40.65625 -10.96875 C 42.613281 -13.550781 43.59375 -18.363281 43.59375 -25.40625 C 43.59375 -32.507812 42.613281 -37.347656 40.65625 -39.921875 Z M 40.65625 -39.921875" transform="translate(404.603 100.678)"/></g></g></g><g fill="#FBFBFB"><g><g><path d="M 44.328125 0 L 43.484375 -7 C 36.929688 -1.5 30.242188 1.25 23.421875 1.25 C 17.140625 1.25 12.585938 -0.992188 9.765625 -5.484375 C 6.953125 -9.984375 5.546875 -16.726562 5.546875 -25.71875 C 5.546875 -35.46875 7.113281 -42.347656 10.25 -46.359375 C 13.382812 -50.367188 18.296875 -52.375 24.984375 -52.375 C 31.390625 -52.375 37.242188 -50.835938 42.546875 -47.765625 C 42.265625 -50.765625 42.125 -54.113281 42.125 -57.8125 L 42.125 -73.171875 L 52.265625 -73.171875 L 52.265625 0 Z M 42.125 -13.90625 L 42.125 -41.078125 C 35.78125 -42.753906 30.898438 -43.59375 27.484375 -43.59375 C 23.171875 -43.59375 20.175781 -42.390625 18.5 -39.984375 C 16.832031 -37.578125 16 -32.851562 16 -25.8125 C 16 -18.78125 16.816406 -13.972656 18.453125 -11.390625 C 20.085938 -8.816406 22.890625 -7.53125 26.859375 -7.53125 C 29.441406 -7.53125 31.722656 -7.984375 33.703125 -8.890625 C 35.691406 -9.796875 38.5 -11.46875 42.125 -13.90625 Z M 42.125 -13.90625" transform="translate(464.188 100.678)"/></g></g></g></svg>